<?xml version="1.0" encoding="utf-8"?>
<!-- Generator: Adobe Illustrator 24.3.0, SVG Export Plug-In . SVG Version: 6.00 Build 0)  -->
<svg version="1.1" id="Layer_1" xmlns="http://www.w3.org/2000/svg" xmlns:xlink="http://www.w3.org/1999/xlink" x="0px" y="0px"
	 width="595.3px" height="267px" viewBox="0 0 595.3 267" style="enable-background:new 0 0 595.3 267;" xml:space="preserve">
<style type="text/css">
	.st0{fill:#FFAA00;}
</style>
<g id="Layer_2_1_">
</g>
<g>
	
		<ellipse transform="matrix(0.9999 -1.611707e-02 1.611707e-02 0.9999 -2.0868 7.4684)" class="st0" cx="462.3" cy="133.2" rx="34.2" ry="34.2"/>
	<path class="st0" d="M461.7,95.5c1.7,0,3.3,0.1,4.9,0.2c1-2.1,2.6-4.7,4.8-7.2c-0.4-1.5-0.8-3.1-0.8-5.2c0.1-4.8,1.9-7,3-8
		c0.2-0.2,0-0.5-0.2-0.4c-4.3,0.9-11.2,4.8-12.4,13.9c-0.3,2.6-0.2,4.8,0.2,6.7C461.4,95.5,461.5,95.5,461.7,95.5z"/>
	<path class="st0" d="M436.2,95.5c0.3,3.4,1.3,6.3,2.2,8.5c5.1-4.2,11.3-7,18.1-8.1c0.4-0.1,0.7-0.1,1.1-0.1c-0.3-3.6,0.4-6.9,1-8.5
		c1.1-3,2.1-7.2,1.5-11.6c-0.5-3.8-2.3-7-10.5-12.1c-6.8-4.2-7.5-11.6-7.5-14.1c0-0.3-0.3-0.4-0.5-0.1c-5.9,8.3-3.9,18.5-0.3,23.9
		c3.7,5.5-0.1,9.8-0.1,9.8S435.6,88.6,436.2,95.5z"/>
	<path class="st0" d="M432.1,110.5c1.1-1.4,2.2-2.8,3.5-4c-1-2.1-2.1-5-2.7-8.3c-1.4-0.6-2.9-1.3-4.6-2.7c-3.7-3-4.3-5.9-4.3-7.3
		c0-0.3-0.4-0.3-0.5-0.1c-2,4-3.2,11.8,3.1,18.4C428.5,108.3,430.4,109.6,432.1,110.5z"/>
	<path class="st0" d="M488.5,106.1l0.1,0.1c2.6-2.5,5.6-4,7.3-4.5c3-1,6.9-2.8,10-6.1c2.6-2.8,4.1-6.1,3-15.7
		c-0.9-7.9,4.4-13.1,6.3-14.7c0.2-0.2,0.1-0.5-0.2-0.5c-10.2,0.6-16.9,8.5-18.8,14.7c-2,6.3-7.7,6-7.7,6s-8-0.9-13,3.9
		c-2.4,2.3-4.1,4.9-5.2,7C477.1,97.8,483.4,101.1,488.5,106.1z"/>
	<path class="st0" d="M411.7,136.2c-4.7,1-7.3-0.3-8.4-1.2c-0.2-0.2-0.5,0.1-0.4,0.3c1.8,4,7.2,9.9,16.3,9c2.6-0.2,4.7-0.9,6.5-1.7
		c-0.4-1.7-0.8-3.5-1-5.3c-2.3-0.5-5.2-1.5-8.1-3.1C415.3,135.1,413.8,135.8,411.7,136.2z"/>
	<path class="st0" d="M502.9,112.4c0.9-1.3,2-2.6,3.6-3.9c3.8-2.9,6.7-2.9,8.1-2.6c0.2,0.1,0.4-0.3,0.2-0.4
		c-3.4-2.8-10.8-5.8-18.6-1c-2.2,1.3-3.9,2.8-5.2,4.3c1.2,1.4,2.2,2.8,3.2,4.3C496.5,112.7,499.5,112.3,502.9,112.4z"/>
	<path class="st0" d="M402.2,112.1c6.6,0.5,7.6,6.2,7.6,6.2s0.9,8,6.7,11.8c2.8,1.8,5.7,2.9,8,3.6c-0.1-7.3,2-14.2,5.6-20.1
		c-3-2-5.2-4.6-6.1-6.1c-1.6-2.7-4.3-6.1-8.1-8.4c-3.3-2-6.9-2.6-16,0.6c-7.5,2.7-13.8-1.4-15.7-2.9c-0.2-0.2-0.5,0-0.4,0.3
		C386.6,106.9,395.8,111.6,402.2,112.1z"/>
	<path class="st0" d="M431.3,167c3.2-1,5.8-2.6,7.8-4.1c-5.5-4.3-9.8-10.2-12.3-16.9c-3.5,1.1-6.8,1.1-8.5,0.9
		c-3.2-0.4-7.5-0.4-11.6,1.1c-3.6,1.4-6.3,3.8-9.5,12.9c-2.6,7.5-9.7,9.9-12.1,10.5c-0.3,0.1-0.3,0.4,0,0.5c9.5,3.9,18.9-0.3,23.3-5
		c4.5-4.8,9.5-2.1,9.5-2.1S424.7,169.2,431.3,167z"/>
	<path class="st0" d="M503.8,152c1.5-0.1,3.2-0.1,5.3,0.4c4.6,1.1,6.4,3.4,7.1,4.7c0.1,0.2,0.5,0.1,0.5-0.1
		c0.1-4.4-2.2-12-10.8-15.2c-2.4-0.9-4.6-1.3-6.6-1.3c-0.4,1.8-0.8,3.5-1.4,5.2C499.7,147.2,501.9,149.3,503.8,152z"/>
	<path class="st0" d="M548.7,131.8c-6.8-7.6-17.2-7.9-23.2-5.6c-6.2,2.4-9.5-2.3-9.5-2.3s-4.3-6.8-11.2-7.7
		c-3.3-0.4-6.4-0.2-8.7,0.3c2.5,5,3.8,10.4,3.9,16.2c0,1.5,0,3-0.2,4.4c3.6,0.5,6.6,1.9,8.1,2.9c2.7,1.7,6.5,3.7,11,4
		c3.8,0.3,7.3-0.6,14.2-7.5c5.6-5.7,13-4.7,15.4-4.2C548.7,132.3,548.9,132,548.7,131.8z"/>
	<path class="st0" d="M507.2,178.3c-5.7-3.3-4.1-8.8-4.1-8.8s2.6-7.6-0.9-13.6c-1.7-2.9-3.9-5.1-5.7-6.7c-3,6.4-7.8,11.9-13.7,15.7
		c1.8,3.1,2.6,6.4,2.8,8.1c0.3,3.2,1.2,7.4,3.7,11.1c2.1,3.2,5.1,5.3,14.7,6.4c7.9,0.9,11.8,7.2,12.9,9.4c0.1,0.2,0.5,0.2,0.5-0.1
		C519,189.8,512.7,181.5,507.2,178.3z"/>
	<path class="st0" d="M479.6,166.7c-1.6,0.8-3.2,1.5-4.9,2.1c0,2.3-0.3,5.4-1.2,8.6c1,1.2,2.1,2.5,3,4.4c2,4.3,1.3,7.1,0.7,8.5
		c-0.1,0.2,0.2,0.4,0.4,0.3c3.5-2.7,8-9.2,5.1-17.9C481.8,170.3,480.7,168.3,479.6,166.7z"/>
	<path class="st0" d="M444.1,173.8c1.4-2.2,2.3-4.2,2.8-6.1c-1.6-0.7-3.2-1.6-4.7-2.5c-1.8,1.5-4.4,3.1-7.5,4.5
		c-0.3,1.5-0.6,3.2-1.6,5.1c-2.1,4.2-4.8,5.5-6.2,5.8c-0.2,0.1-0.2,0.4,0,0.5C431.2,182,439.1,181.5,444.1,173.8z"/>
	<path class="st0" d="M462.9,170.9c-4.4,0.1-8.7-0.6-12.7-2c-1.3,3.4-3.4,6-4.6,7.2c-2.3,2.2-5,5.6-6.4,9.8c-1.2,3.7-1,7.3,4.2,15.5
		c4.3,6.7,1.7,13.7,0.7,16c-0.1,0.2,0.1,0.5,0.4,0.3c9-4.9,11.5-15,10.6-21.4c-1-6.5,4.3-8.7,4.3-8.7s7.6-2.7,10-9.2
		c1.2-3.1,1.6-6.2,1.7-8.6c-1,0.2-2,0.4-3.1,0.6C466.3,170.8,464.6,170.9,462.9,170.9z"/>
</g>
<path class="st0" d="M217.7,129.4c-4.6-5.2-11.2-8.1-18.5-8.1c-3.1,0-6.1,0.5-8.6,1.5c-0.8,0.3-1.5,0.4-2.1,0.4
	c-1.8,0-3-1.2-3.2-1.5c-0.8-1.2-5.1-7.1-11.9-8.8c0.5-0.5,1-1.1,1.7-1.6c2.1-1.6,3.7-2,4.6-2c0.2,0,0.4,0,0.6,0.1
	c0.3,0.1,0.5,0.1,0.8,0.1c1.6,0,3-1,3.6-2.5c0.5-1.5,0.1-3.2-1.1-4.2c-2.5-2.1-5.9-3.6-9.3-4.1c0.2-0.2,0.4-0.4,0.6-0.6
	c3.9-4.2,5-9.2,3.9-18.6c-0.7-6.1,3.3-10.1,5.1-11.5c1.2-1,1.7-2.7,1.2-4.2c-0.5-1.5-2-2.5-3.6-2.5h-0.1h-0.1
	c-11.6,0.6-19.6,9.3-22,17.1c-1,3.2-3.3,3.5-4.1,3.5c-0.3,0-0.9-0.1-1.7-0.1c-3,0-8.3,0.5-12.6,3.9c-0.1-0.7-0.2-1.5-0.2-2.3
	c0.1-3.5,1.3-4.9,1.8-5.3c1.2-1,1.7-2.7,1.1-4.2c-0.5-1.5-2-2.5-3.6-2.5c-0.3,0-0.5,0-0.8,0.1c-2.9,0.6-6.2,2.1-9,4.6
	c0-0.3-0.1-0.6-0.1-0.9c-0.8-5.7-4.1-9.6-12.1-14.6c-5.2-3.2-5.8-8.9-5.9-11.2c0-2.1-1.8-3.8-3.8-3.8c-1.2,0-2.4,0.6-3.1,1.6
	c-6.8,9.5-4.9,21.1-0.3,27.9c1.9,2.8,0.7,4.8,0.2,5.4c-0.9,1-5.8,6.5-6,13.6c-0.6-0.3-1.3-0.8-1.9-1.3c-2.7-2.2-3-4-3-4.7
	c0-2.1-1.7-3.7-3.8-3.7c-1.4,0-2.7,0.8-3.4,2.1c-1.4,2.7-2.2,6.2-2,9.9c-0.2-0.2-0.5-0.3-0.7-0.5c-2.5-1.5-4.8-2.1-7.7-2.1
	c-3,0-6.6,0.8-11.3,2.5C64,96.7,62.7,97,61.4,97c-4.1,0-7.3-2.1-8.5-3c-0.7-0.5-1.5-0.8-2.3-0.8c-1.2,0-2.3,0.6-3.1,1.5
	c-0.7,1-0.9,2.2-0.6,3.4c3.2,11.2,13.4,17,21.6,17.7c3.3,0.3,4.2,2.5,4.3,3.2c0.2,1.4,1.5,8.6,6.9,13.2c-0.6,0.3-1.4,0.5-2.2,0.7
	c-0.9,0.2-1.7,0.3-2.4,0.3c-1.8,0-2.7-0.5-3.1-0.8c-0.7-0.5-1.5-0.8-2.3-0.8c-1.3,0-2.5,0.7-3.2,1.8s-0.8,2.4-0.3,3.6
	c1.2,2.7,3.4,5.6,6.6,7.7c-0.3,0.1-0.6,0.2-0.9,0.3c-5.3,2-8.5,6.1-11.6,15.1c-2,5.8-7.4,7.7-9.6,8.2c-1.6,0.4-2.8,1.8-2.9,3.4
	c-0.1,1.6,0.8,3.2,2.3,3.8c2.9,1.2,6,1.8,9.1,1.8c8.1,0,14.7-4,18.2-7.7c1.1-1.2,2.2-1.7,3.5-1.7c0.9,0,1.6,0.3,1.7,0.4
	c1,0.6,5.7,3.1,11.2,3.1l0,0c1.2,0,2.3-0.1,3.4-0.3c-0.2,0.7-0.5,1.4-0.9,2.2c-1.6,3.1-3.2,3.8-3.9,4c-1.7,0.4-2.9,1.9-2.9,3.7
	c0,1.7,1.2,3.3,2.9,3.7c1.4,0.3,2.9,0.5,4.4,0.5l0,0c2,0,3.9-0.3,5.7-0.8c-0.1,0.3-0.2,0.6-0.3,0.9c-1.7,5.5-0.5,10.5,4.5,18.4
	c3.3,5.1,1.4,10.5,0.4,12.6c-0.5,1.2-0.5,2.6,0.3,3.7c0.7,1.1,1.9,1.8,3.2,1.8c0.6,0,1.3-0.2,1.8-0.5c10.2-5.6,13.6-16.9,12.4-25
	c-0.5-3.3,1.5-4.6,2.2-5c1.3-0.5,8.1-3.3,11.3-9.7c0.4,0.6,0.8,1.2,1.2,2c1.5,3.2,1,4.9,0.7,5.5c-0.5,1.2-0.4,2.5,0.3,3.6
	s1.9,1.7,3.2,1.7l0,0c0.8,0,1.6-0.3,2.3-0.8c2.4-1.8,4.7-4.6,6.1-8.1c0.1,0.2,0.3,0.5,0.5,0.7c3.2,4.8,7.9,6.9,17.3,7.9
	c6.1,0.7,9.1,5.5,10.1,7.5c0.7,1.3,2,2.1,3.4,2.1l0,0c1.9,0,3.5-1.3,3.8-3.2c2-11.5-4.7-21.2-11.8-25.3c-2.9-1.7-2.7-4-2.5-4.8
	c0.4-1.3,2.4-8.4-0.5-14.8c0.8,0,1.5,0.2,2.3,0.4c3.4,0.8,4.5,2.3,4.8,2.9c0.7,1.3,1.9,2.1,3.4,2.1l0,0c2.1,0,3.8-1.6,3.8-3.7
	c0.1-3-0.7-6.5-2.5-9.8c0.3,0,0.6,0.1,0.9,0.1c0.5,0,1,0.1,1.5,0.1c5,0,9.3-2.4,15.5-8.6c2.3-2.4,5.4-3.6,9-3.6
	c1.4,0,2.6,0.2,3.2,0.3c0.3,0.1,0.5,0.1,0.8,0.1l0,0c1.5,0,2.9-0.9,3.5-2.3C218.9,132.1,218.7,130.5,217.7,129.4z M181.2,105.6
	c0.2,0.2,0,0.5-0.2,0.4c-1.4-0.3-4.3-0.3-8.1,2.6c-1.7,1.3-2.7,2.6-3.6,3.9c-3.3-0.2-6.3,0.2-8.6,0.7c-1-1.5-2-3-3.2-4.4
	c1.3-1.5,2.9-2.9,5.1-4.3C170.4,99.8,177.8,102.7,181.2,105.6z M128.6,167.3c-18.8,0-34.1-15.3-34.1-34.1s15.3-34.1,34.1-34.1
	s34.1,15.3,34.1,34.1S147.4,167.3,128.6,167.3z M141.8,89.3c5-4.8,13-3.9,13-3.9s5.7,0.3,7.7-6c1.9-6.1,8.6-14.1,18.8-14.7
	c0.3,0,0.4,0.3,0.2,0.5c-1.9,1.6-7.2,6.8-6.3,14.7c1.1,9.6-0.3,12.9-3,15.7c-3.1,3.2-7,5.1-10,6.1c-1.6,0.5-4.6,2-7.2,4.5
	c-5-4.9-11.3-8.4-18.4-9.9C137.7,94.1,139.4,91.6,141.8,89.3z M127.4,88.8c1.2-9.1,8.1-13,12.4-13.9c0.2-0.1,0.4,0.3,0.2,0.4
	c-1.1,0.9-2.9,3.2-3,8c0,2.1,0.3,3.8,0.8,5.2c-2.2,2.5-3.7,5.1-4.8,7.2c-1.4-0.2-2.9-0.3-4.3-0.3c-0.4,0-0.7,0-1.1,0
	C127.2,93.5,127,91.3,127.4,88.8z M107.6,82.9c0,0,3.8-4.3,0.1-9.8c-3.6-5.3-5.7-15.5,0.3-23.9c0.1-0.2,0.5-0.1,0.5,0.1
	c0,2.5,0.8,9.9,7.5,14.1c8.2,5.1,9.9,8.3,10.5,12.1c0.6,4.4-0.4,8.6-1.5,11.6c-0.6,1.6-1.3,4.8-1,8.4c-7.2,0.9-13.9,3.8-19.2,8.2
	c-0.9-2.2-1.9-5.1-2.2-8.4C101.9,88.6,107.6,82.9,107.6,82.9z M89.9,88.1c0.1-0.2,0.5-0.2,0.5,0.1c0,1.5,0.7,4.3,4.3,7.3
	c1.6,1.3,3.1,2.1,4.6,2.7c0.6,3.3,1.6,6.1,2.6,8.2c-1.3,1.3-2.5,2.6-3.6,4.1c-1.7-0.9-3.5-2.2-5.3-4C86.7,99.9,87.9,92.1,89.9,88.1z
	 M76.1,118.3c0,0-1-5.6-7.6-6.2c-6.4-0.5-15.7-5.2-18.5-15.1c-0.1-0.2,0.2-0.4,0.4-0.3c1.9,1.5,8.2,5.6,15.7,2.9
	c9.1-3.2,12.7-2.6,16-0.6c3.8,2.3,6.5,5.7,8.1,8.4c0.9,1.5,3,4,5.9,6c-3.5,5.8-5.6,12.5-5.6,19.8c0,0.1,0,0.3,0,0.4
	c-2.3-0.6-5.2-1.7-7.9-3.5C77,126.3,76.1,118.3,76.1,118.3z M69.2,135.3c-0.1-0.2,0.2-0.5,0.4-0.3c1.2,0.9,3.8,2.2,8.4,1.2
	c2.1-0.4,3.6-1.1,4.9-1.9c2.9,1.6,5.8,2.5,8,3c0.2,1.8,0.5,3.6,1,5.3c-1.8,0.8-3.9,1.4-6.4,1.6C76.4,145.2,71,139.3,69.2,135.3z
	 M84.2,164.9c0,0-5-2.7-9.5,2.1c-4.4,4.7-13.9,9-23.3,5c-0.2-0.1-0.2-0.4,0-0.5c2.4-0.6,9.5-2.9,12.1-10.5
	c3.2-9.1,5.9-11.5,9.5-12.9c4.2-1.6,8.5-1.6,11.6-1.1c1.7,0.2,5,0.2,8.4-0.9c2.4,6.7,6.8,12.6,12.3,16.9c-1.9,1.4-4.5,3-7.7,4
	C91,169.2,84.2,164.9,84.2,164.9z M93.2,180.9c-0.2-0.1-0.3-0.4,0-0.5c1.4-0.4,4-1.6,6.2-5.8c1-1.9,1.3-3.5,1.6-5.1
	c3.1-1.3,5.6-2.9,7.4-4.4c1.5,1,3.1,1.8,4.8,2.6c-0.5,1.9-1.4,3.9-2.7,6C105.4,181.5,97.5,182,93.2,180.9z M125.7,187.7
	c0,0-5.3,2.2-4.3,8.7c0.9,6.4-1.6,16.4-10.6,21.4c-0.2,0.1-0.5-0.1-0.4-0.3c1-2.2,3.6-9.2-0.7-16c-5.2-8.2-5.3-11.8-4.2-15.5
	c1.4-4.2,4.1-7.6,6.4-9.8c1.2-1.2,3.3-3.8,4.6-7.1c3.8,1.3,7.9,2,12.1,2c3,0,6-0.4,8.8-1c-0.1,2.4-0.5,5.4-1.7,8.5
	C133.3,185,125.7,187.7,125.7,187.7z M143.8,190.6c-0.2,0.2-0.5-0.1-0.4-0.3c0.6-1.3,1.3-4.2-0.7-8.5c-0.9-1.9-1.9-3.2-3-4.4
	c0.9-3.2,1.2-6.2,1.2-8.5c1.7-0.6,3.4-1.3,5-2.1c1.1,1.6,2.2,3.5,3,5.9C151.9,181.4,147.4,187.9,143.8,190.6z M173.5,178.3
	c5.5,3.2,11.8,11.5,10.1,21.6c0,0.3-0.4,0.3-0.5,0.1c-1.1-2.2-5-8.6-12.9-9.4c-9.6-1.1-12.6-3.2-14.7-6.4c-2.5-3.7-3.4-7.9-3.7-11.1
	c-0.2-1.7-0.9-4.9-2.7-8c5.9-3.8,10.7-9.3,13.8-15.7c1.8,1.6,3.9,3.8,5.6,6.6c3.6,6,0.9,13.6,0.9,13.6S167.8,175,173.5,178.3z
	 M183,157.1c0,0.3-0.3,0.3-0.5,0.1c-0.7-1.3-2.5-3.6-7.1-4.7c-2.1-0.5-3.7-0.5-5.3-0.4c-1.9-2.7-4.1-4.8-5.9-6.2
	c0.6-1.7,1.1-3.4,1.4-5.2c1.9,0.1,4.1,0.5,6.5,1.3C180.8,145.1,183.1,152.7,183,157.1z M214.8,132.2c-2.4-0.5-9.8-1.5-15.4,4.2
	c-6.8,6.9-10.3,7.8-14.2,7.5c-4.4-0.4-8.3-2.3-11-4c-1.4-0.9-4.4-2.3-8-2.9c0.1-1.3,0.2-2.5,0.2-3.8c0-6-1.4-11.7-3.9-16.8
	c2.4-0.4,5.4-0.7,8.7-0.3c6.9,0.9,11.2,7.7,11.2,7.7s3.3,4.6,9.5,2.3c6-2.3,16.4-2.1,23.2,5.6C215.2,132,215,132.3,214.8,132.2z"/>
<path class="st0" d="M387.5,131.8c-6.8-7.6-17.2-7.9-23.2-5.6c-6.2,2.4-9.5-2.3-9.5-2.3s-4.3-6.8-11.2-7.7c-3.3-0.4-6.3-0.2-8.7,0.3
	c-0.6-1.1-1.2-2.2-1.8-3.3c2.3-0.5,5.2-0.9,8.6-0.7c0.9-1.3,2-2.6,3.6-3.9c3.8-2.9,6.7-2.9,8.1-2.6c0.2,0.1,0.4-0.3,0.2-0.4
	c-3.4-2.8-10.8-5.8-18.6-1c-2.2,1.3-3.8,2.8-5.1,4.3c-0.8-0.9-1.6-1.8-2.4-2.6c2.6-2.5,5.6-3.9,7.2-4.5c3-1,6.9-2.8,10-6.1
	c2.6-2.8,4.1-6.1,3-15.7c-0.9-7.9,4.4-13.1,6.3-14.7c0.2-0.2,0.1-0.5-0.2-0.5c-10.2,0.6-16.9,8.5-18.8,14.7c-2,6.3-7.7,6-7.7,6
	s-8-0.9-13,3.9c-2.4,2.3-4.1,4.8-5.2,6.9c-1.2-0.3-2.4-0.5-3.7-0.6c1-2.1,2.6-4.7,4.8-7.2c-0.4-1.5-0.8-3.1-0.8-5.2
	c0.1-4.8,1.9-7,3-8c0.2-0.2,0-0.5-0.2-0.4c-4.3,0.9-11.2,4.8-12.4,13.9c-0.3,2.5-0.2,4.7,0.2,6.6c-1.2,0-2.4,0.1-3.6,0.3
	c-0.3-3.6,0.4-6.8,1-8.4c1.1-3,2.1-7.2,1.5-11.6c-0.5-3.8-2.3-7-10.5-12.1c-6.8-4.2-7.5-11.6-7.5-14.1c0-0.3-0.3-0.4-0.5-0.1
	c-5.9,8.3-3.9,18.5-0.3,23.9c3.7,5.5-0.1,9.8-0.1,9.8s-5.7,5.7-5,12.6c0.3,3.3,1.2,6.2,2.2,8.4c-1,0.8-1.9,1.6-2.8,2.5
	c-1-2.1-2-4.9-2.6-8.2c-1.4-0.6-2.9-1.3-4.6-2.7c-3.7-3-4.3-5.9-4.3-7.3c0-0.3-0.4-0.3-0.5-0.1c-2,4-3.2,11.8,3.1,18.4
	c1.8,1.8,3.6,3.1,5.3,4c-0.7,1-1.4,1.9-2,3c-3-2-5.1-4.6-5.9-6c-1.6-2.7-4.3-6.1-8.1-8.4c-3.3-2-6.9-2.6-16,0.6
	c-7.5,2.7-13.8-1.4-15.7-2.9c-0.2-0.2-0.5,0-0.4,0.3c2.8,9.8,12.1,14.6,18.5,15.1c6.6,0.5,7.6,6.2,7.6,6.2s0.9,8,6.7,11.8
	c2.8,1.8,5.6,2.9,7.9,3.5c0,1.3,0.1,2.5,0.2,3.7c-2.3-0.5-5.1-1.5-8-3c-1.4,0.8-2.9,1.5-4.9,1.9c-4.7,1-7.3-0.3-8.4-1.2
	c-0.2-0.2-0.5,0.1-0.4,0.3c1.8,4,7.2,9.9,16.3,9c2.5-0.2,4.6-0.9,6.4-1.6c0.3,1.2,0.7,2.3,1.1,3.4c-3.4,1.1-6.7,1.1-8.4,0.9
	c-3.2-0.4-7.5-0.4-11.6,1.1c-3.6,1.4-6.3,3.8-9.5,12.9c-2.6,7.5-9.7,9.9-12.1,10.5c-0.3,0.1-0.3,0.4,0,0.5c9.5,3.9,18.9-0.3,23.3-5
	c4.5-4.8,9.5-2.1,9.5-2.1s6.8,4.3,13.4,2.1c3.1-1,5.8-2.6,7.7-4c1,0.8,2,1.5,3.1,2.2c-1.8,1.4-4.3,3.1-7.4,4.4
	c-0.3,1.5-0.6,3.2-1.6,5.1c-2.1,4.2-4.8,5.5-6.2,5.8c-0.2,0.1-0.2,0.4,0,0.5c4.3,1.1,12.2,0.5,17.2-7.1c1.4-2.1,2.2-4.2,2.7-6
	c1.1,0.5,2.2,0.9,3.3,1.3c-1.3,3.3-3.3,5.9-4.6,7.1c-2.3,2.2-5,5.6-6.4,9.8c-1.2,3.7-1,7.3,4.2,15.5c4.3,6.7,1.7,13.7,0.7,16
	c-0.1,0.2,0.1,0.5,0.4,0.3c9-4.9,11.5-15,10.6-21.4c-1-6.5,4.3-8.7,4.3-8.7s7.6-2.7,10-9.2c1.2-3.1,1.6-6.1,1.7-8.5
	c1.2-0.3,2.4-0.6,3.6-1c0,2.3-0.3,5.3-1.2,8.5c1,1.2,2.1,2.5,3,4.4c2,4.3,1.3,7.1,0.7,8.5c-0.1,0.2,0.2,0.4,0.4,0.3
	c3.5-2.7,8-9.2,5.1-17.9c-0.8-2.4-1.9-4.3-3-5.9c1.1-0.6,2.1-1.2,3.1-1.8c1.8,3.1,2.6,6.3,2.7,8c0.3,3.2,1.2,7.4,3.7,11.1
	c2.1,3.2,5.1,5.3,14.7,6.4c7.9,0.9,11.8,7.2,12.9,9.4c0.1,0.2,0.5,0.2,0.5-0.1c1.7-10.1-4.6-18.4-10.1-21.6
	c-5.7-3.3-4.1-8.8-4.1-8.8s2.6-7.6-0.9-13.6c-1.7-2.8-3.8-5-5.6-6.6c0.5-1.1,1-2.3,1.4-3.5c1.8,1.5,4,3.5,5.9,6.2
	c1.5-0.1,3.2-0.1,5.3,0.4c4.6,1.1,6.4,3.4,7.1,4.7c0.1,0.2,0.5,0.1,0.5-0.1c0.1-4.4-2.2-12-10.8-15.2c-2.4-0.9-4.6-1.2-6.5-1.3
	c0.2-1.2,0.4-2.4,0.5-3.6c3.5,0.5,6.5,1.9,8,2.9c2.7,1.7,6.5,3.7,11,4c3.8,0.3,7.3-0.6,14.2-7.5c5.6-5.7,13-4.7,15.4-4.2
	C387.5,132.3,387.7,132,387.5,131.8z M301.1,167.3c-18.8,0-34.1-15.3-34.1-34.1s15.3-34.1,34.1-34.1c18.8,0,34.1,15.3,34.1,34.1
	S319.9,167.3,301.1,167.3z"/>
</svg>
